<?xml version="1.0" encoding="utf-8"?>
<!-- Generator: Adobe Illustrator 24.0.2, SVG Export Plug-In . SVG Version: 6.00 Build 0)  -->
<svg version="1.1" id="레이어_1" xmlns="http://www.w3.org/2000/svg" xmlns:xlink="http://www.w3.org/1999/xlink" x="0px"
	 y="0px" viewBox="0 0 228.7 39.1" style="enable-background:new 0 0 228.7 39.1;" xml:space="preserve">
<style type="text/css">
	.st0{fill:#EF880C;}
</style>
<g>
	<g>
		<path class="st0" d="M16.7,4.4h3.8v20.1h-3.8V4.4z M18.4,12.6h11.7v3.6H18.4V12.6z M27.7,4.4h3.8v20.1h-3.8V4.4z"/>
		<path class="st0" d="M38.2,23.9c-1-0.5-1.7-1.2-2.2-2.2c-0.5-1-0.8-2.1-0.8-3.5v-1.6c0-1.4,0.2-2.6,0.7-3.6c0.5-1,1.2-1.8,2.2-2.3
			c0.9-0.5,2.1-0.8,3.4-0.8c1.3,0,2.3,0.3,3.2,0.9c0.9,0.6,1.6,1.5,2,2.7c0.5,1.2,0.7,2.6,0.7,4.3v0.9h-9.8v-2.6H44l0-0.3
			c-0.1-0.8-0.4-1.5-0.8-1.9c-0.4-0.5-1-0.7-1.7-0.7c-0.9,0-1.6,0.3-2.1,0.8c-0.5,0.5-0.8,1.3-0.8,2.3v1.8c0,1,0.3,1.7,0.8,2.3
			c0.5,0.5,1.3,0.8,2.3,0.8c0.5,0,1-0.1,1.5-0.3c0.5-0.2,0.9-0.4,1.4-0.8l2.5,2.2c-0.7,0.7-1.6,1.2-2.5,1.6s-1.9,0.6-2.8,0.6
			C40.3,24.6,39.1,24.4,38.2,23.9z"/>
		<path class="st0" d="M54.5,19.7c0,0.3,0.1,0.6,0.3,0.8s0.5,0.3,0.8,0.3h0.6v3.6h-1.9c-1.1,0-2-0.3-2.7-1s-1-1.6-1-2.8V4.4h3.8
			V19.7z"/>
		<path class="st0" d="M62.7,19.7c0,0.3,0.1,0.6,0.3,0.8s0.5,0.3,0.8,0.3h0.6v3.6h-1.9c-1.1,0-2-0.3-2.7-1s-1-1.6-1-2.8V4.4h3.8
			V19.7z"/>
		<path class="st0" d="M69.5,23.9c-0.9-0.5-1.6-1.2-2.1-2.1c-0.5-0.9-0.7-2.1-0.7-3.4V16c0-1.3,0.2-2.4,0.7-3.3
			c0.5-0.9,1.2-1.6,2.1-2.1c0.9-0.5,2-0.7,3.3-0.7c1.3,0,2.4,0.2,3.3,0.7c0.9,0.5,1.6,1.2,2.1,2.1c0.5,0.9,0.7,2,0.7,3.3v2.4
			c0,1.3-0.2,2.4-0.7,3.3c-0.5,0.9-1.2,1.6-2.1,2.1c-0.9,0.5-2,0.7-3.3,0.7C71.5,24.6,70.4,24.4,69.5,23.9z M74.6,20.3
			c0.4-0.4,0.6-1.1,0.6-1.9V16c0-0.8-0.2-1.4-0.6-1.9c-0.4-0.4-1-0.7-1.8-0.7c-0.8,0-1.3,0.2-1.8,0.7c-0.4,0.4-0.6,1.1-0.6,1.9v2.4
			c0,0.8,0.2,1.4,0.6,1.9c0.4,0.4,1,0.7,1.8,0.7C73.6,21,74.2,20.7,74.6,20.3z"/>
		<path class="st0" d="M90.3,4.4h4.6l7.5,15.4l-0.3,0.4V4.4h3.6v20H101L93.6,9.3l0.3-0.4v15.5h-3.6V4.4z"/>
		<path class="st0" d="M112.4,23.9c-1-0.5-1.7-1.2-2.2-2.2c-0.5-1-0.8-2.1-0.8-3.5v-1.6c0-1.4,0.2-2.6,0.7-3.6
			c0.5-1,1.2-1.8,2.2-2.3c0.9-0.5,2.1-0.8,3.4-0.8c1.3,0,2.3,0.3,3.2,0.9c0.9,0.6,1.6,1.5,2,2.7c0.5,1.2,0.7,2.6,0.7,4.3v0.9h-9.8
			v-2.6h6.3l0-0.3c-0.1-0.8-0.4-1.5-0.8-1.9c-0.4-0.5-1-0.7-1.7-0.7c-0.9,0-1.6,0.3-2.1,0.8c-0.5,0.5-0.8,1.3-0.8,2.3v1.8
			c0,1,0.3,1.7,0.8,2.3c0.5,0.5,1.3,0.8,2.3,0.8c0.5,0,1-0.1,1.5-0.3c0.5-0.2,0.9-0.4,1.4-0.8l2.5,2.2c-0.7,0.7-1.6,1.2-2.5,1.6
			s-1.9,0.6-2.8,0.6C114.6,24.6,113.4,24.4,112.4,23.9z"/>
		<path class="st0" d="M123.9,10.1h7v3.2h-7V10.1z M126.2,23.5c-0.6-0.6-0.9-1.6-0.9-2.8V5.9h3.8v13.8c0,0.3,0.1,0.6,0.2,0.8
			c0.1,0.2,0.3,0.3,0.6,0.3h0.9v3.6H129C127.7,24.5,126.8,24.2,126.2,23.5z"/>
		<path class="st0" d="M132.9,10.1h3.6l2.5,8.8l3-8.8h2.2l3,8.8l2.5-8.8h3.6l-4.4,14.3h-2.8l-3.1-9.3l-3.1,9.3h-2.8L132.9,10.1z"/>
		<path class="st0" d="M158.4,23.9c-0.9-0.5-1.6-1.2-2.1-2.1c-0.5-0.9-0.7-2.1-0.7-3.4V16c0-1.3,0.2-2.4,0.7-3.3
			c0.5-0.9,1.2-1.6,2.1-2.1c0.9-0.5,2-0.7,3.3-0.7s2.4,0.2,3.3,0.7c0.9,0.5,1.6,1.2,2.1,2.1c0.5,0.9,0.7,2,0.7,3.3v2.4
			c0,1.3-0.2,2.4-0.7,3.3c-0.5,0.9-1.2,1.6-2.1,2.1c-0.9,0.5-2,0.7-3.3,0.7S159.4,24.4,158.4,23.9z M163.5,20.3
			c0.4-0.4,0.6-1.1,0.6-1.9V16c0-0.8-0.2-1.4-0.6-1.9c-0.4-0.4-1-0.7-1.8-0.7c-0.8,0-1.3,0.2-1.8,0.7c-0.4,0.4-0.6,1.1-0.6,1.9v2.4
			c0,0.8,0.2,1.4,0.6,1.9c0.4,0.4,1,0.7,1.8,0.7C162.5,21,163.1,20.7,163.5,20.3z"/>
		<path class="st0" d="M171.4,10.1h4.1v14.3h-4.1V10.1z M178.8,13.7c-0.3-0.1-0.6-0.1-0.9-0.1c-0.8,0-1.4,0.2-1.8,0.7
			c-0.4,0.5-0.6,1.2-0.6,2l-0.3-3.7c0.4-0.9,0.9-1.5,1.5-2c0.6-0.5,1.3-0.7,2.1-0.7c0.6,0,1.1,0.1,1.6,0.3c0.5,0.2,0.9,0.5,1.3,0.8
			l-2.2,3.1C179.3,13.9,179.1,13.8,178.8,13.7z"/>
		<path class="st0" d="M183.5,4.4h3.8v20.1h-3.8V4.4z M185.2,19.2l6.7-9.2h4l-10.2,13.3L185.2,19.2z M188.6,17l3.1-1.9l4.9,9.3h-4.4
			L188.6,17z"/>
		<path class="st0" d="M201.4,24.4c-0.8-0.2-1.6-0.4-2.3-0.7s-1.3-0.6-1.9-1.1l2.3-2.9c0.7,0.4,1.4,0.8,2.2,1s1.5,0.4,2.2,0.4
			c0.9,0,1.6-0.1,2.1-0.3s0.7-0.5,0.7-0.8c0-0.3-0.1-0.6-0.3-0.7c-0.2-0.2-0.5-0.3-0.8-0.4s-0.8-0.1-1.4-0.2c-0.2,0-0.3,0-0.5-0.1
			c-0.2,0-0.3,0-0.5-0.1c0,0-0.1,0-0.1,0c0,0-0.1,0-0.1,0c-1.1-0.1-1.9-0.3-2.6-0.5s-1.2-0.6-1.6-1.2c-0.4-0.6-0.7-1.4-0.7-2.5
			c0-1,0.2-1.8,0.7-2.5c0.5-0.7,1.1-1.2,2-1.6c0.9-0.4,1.9-0.5,3.2-0.5c0.7,0,1.5,0.1,2.2,0.2s1.4,0.4,2.1,0.6s1.3,0.6,1.8,1
			l-2.2,2.7c-0.6-0.3-1.3-0.6-2-0.8c-0.7-0.2-1.3-0.3-2-0.3c-0.8,0-1.4,0.1-1.8,0.3c-0.4,0.2-0.6,0.4-0.6,0.7c0,0.2,0.1,0.4,0.3,0.6
			s0.5,0.2,0.8,0.3c0.3,0.1,0.8,0.1,1.5,0.2c0.1,0,0.2,0,0.2,0s0.2,0,0.2,0c0,0,0.1,0,0.1,0s0.1,0,0.1,0c1.1,0.1,2,0.3,2.7,0.5
			c0.7,0.2,1.3,0.6,1.8,1.2c0.5,0.6,0.7,1.5,0.7,2.7c0,1-0.2,1.8-0.7,2.6c-0.5,0.7-1.2,1.2-2.1,1.6c-0.9,0.4-2,0.6-3.3,0.6
			C203,24.6,202.2,24.5,201.4,24.4z"/>
	</g>
</g>
</svg>
